<?xml version="1.0" encoding="utf-8"?>
<!-- Generator: Adobe Illustrator 20.0.0, SVG Export Plug-In . SVG Version: 6.00 Build 0)  -->
<svg version="1.1" id="Layer_1" xmlns="http://www.w3.org/2000/svg" xmlns:xlink="http://www.w3.org/1999/xlink" x="0px" y="0px"
	 viewBox="0 0 1027.4 1048.3" style="enable-background:new 0 0 1027.4 1048.3;" xml:space="preserve">
<style type="text/css">
	.st0{fill:#393836;}
	.st1{opacity:0.25;}
	.st2{fill:#231F20;}
	.st3{fill:#EF8D28;}
	.st4{clip-path:url(#SVGID_2_);}
	.st5{opacity:0.36;fill:#FFFFFF;enable-background:new    ;}
</style>
<g>
	<g id="Layer_1_1_">
		<g id="_Group_">
			<circle id="_Path_" class="st0" cx="511.8" cy="525.1" r="479.7"/>
			<g id="_Group_2">
				<g id="_Group_3" class="st1">
					<g id="_Group_4">
						<path id="_Path_2" class="st2" d="M468.8,437.4c17.2,0,31.1,13.9,31.1,31.1s-13.9,31.1-31.1,31.1c-17.2,0-31.1-13.9-31.1-31.1
							C437.7,451.3,451.6,437.4,468.8,437.4z"/>
						<path id="_Compound_Path_" class="st2" d="M24,529.2c0,273.5,222.5,496,496,496s496-222.5,496-496s-222.5-496-496-496
							S24,255.7,24,529.2z M386.7,856.2V496.4c0-20.6,7.2-40.6,20.2-56.7c15.4-18.9,45.2-39.3,61.7-49.8
							c18.4,12.1,52.7,36,69.1,56.5c8.5,10.7,13.1,23.9,13.1,37.6v372.2L386.7,856.2z M261.8,480.8
							C220.4,592.7,126.7,635.7,86.9,649.3c-10.8-39.1-16.3-79.5-16.3-120.1C70.6,281.4,272.2,79.8,520,79.8
							s449.4,201.6,449.4,449.4S767.8,978.6,520,978.6c-184,0-350.8-114.1-418.2-284.9c51.8-17.1,155.6-66.5,203.7-196.7
							c12.1-32.6,20.8-60.3,27.8-82.6c30.2-96,39.3-96.8,126.6-104.2c108.3-9.1,135,18.3,151,34.7c3.6,3.9,7.5,7.5,11.6,10.8
							c1.6,1.2,3.1,2.5,4.7,3.8c21.3,17.4,50.3,41.2,173.3,49.8c54.3,3.8,62.5,16.1,63.3,17.5c3,5.6-6.1,22-10.5,29.9
							c-2.2,4-4.2,7.5-5.8,11l-1.7,3.7C805.3,558.7,755.5,603,697.6,603H696c-1.3,0-2.6,0-3.8,0c-38.4,0-70.2,8-94.7,23.7V484
							c0-24.2-8.3-47.8-23.4-66.7c-28.3-35.3-90.6-73.2-93.2-74.8l-11.8-7.1l-12,6.9c-2.4,1.4-58.9,34.2-86.4,68
							c-19.8,24.3-30.6,54.7-30.6,86v366.1c0,22.3,18.1,40.4,40.4,40.4h176.5c22.3,0,40.4-18.1,40.4-40.4V695.8
							c2.8-8.4,19.9-46.2,94.7-46.2h3.2h2c77.8,0,141.9-53.4,190.7-158.8l1.6-3.5c1-2.1,2.7-5.2,4.4-8.2
							c9.7-17.5,25.9-46.7,10.7-74.8c-13.4-24.6-45.5-37.9-101-41.8c-108.2-7.6-131.6-26.7-147-39.3c-2.1-1.7-4-3.2-5.8-4.7
							c-2.3-2-4.5-4.1-6.6-6.4c-21.8-22.3-58.2-59.6-188.3-48.6C333.9,274,319.6,302.7,288.8,400.4
							C281.6,423.4,273.4,449.3,261.8,480.8z"/>
					</g>
				</g>
				<g id="_Group_5">
					<g id="_Group_6">
						<path id="_Path_3" class="st3" d="M460.6,429.2c17.2,0,31.1,13.9,31.1,31.1s-13.9,31.1-31.1,31.1s-31.1-13.9-31.1-31.1l0,0
							C429.5,443.2,443.4,429.2,460.6,429.2z"/>
						<path id="_Compound_Path_2" class="st3" d="M15.9,521.1c0,273.5,222.5,496,496,496s496-222.5,496-496s-222.6-496-496.1-496
							S15.9,247.6,15.9,521.1z M378.6,848.1V488.2c0-20.6,7.2-40.6,20.2-56.7c15.4-18.9,45.2-39.3,61.7-49.8
							c18.4,12.1,52.7,36,69.1,56.5c8.5,10.7,13.1,23.9,13.1,37.6v372.3H378.6z M253.7,472.7C212.3,584.6,118.5,627.6,78.8,641.1
							C68,602,62.5,561.7,62.5,521.1c0-247.8,201.6-449.4,449.4-449.4s449.4,201.5,449.4,449.4S759.6,970.4,511.8,970.4
							c-184,0-350.8-114.1-418.2-284.9c51.8-17.1,155.6-66.5,203.7-196.7c12.1-32.6,20.8-60.3,27.8-82.6
							c30.2-96,39.3-96.8,126.6-104.2c108.3-9.1,135,18.3,151,34.7c3.6,3.9,7.5,7.5,11.6,10.8c1.6,1.2,3.1,2.5,4.7,3.8
							c21.3,17.4,50.3,41.2,173.3,49.8c54.3,3.8,62.5,16.1,63.3,17.5c3,5.6-6.1,22-10.5,29.9c-2.2,4-4.2,7.5-5.8,11l-1.7,3.7
							c-40.5,87.5-90.3,131.8-148.2,131.8h-1.6c-1.3,0-2.6,0-3.8,0c-38.4,0-70.2,8-94.7,23.7V475.8c0-24.3-8.3-47.8-23.4-66.8
							c-28.3-35.3-90.6-73.2-93.2-74.8l-11.8-7.1l-11.9,6.9c-2.4,1.4-58.9,34.2-86.4,68c-19.8,24.3-30.6,54.7-30.6,86.1v366.1
							c0,22.3,18.1,40.4,40.4,40.4h176.5c22.3,0,40.4-18.1,40.4-40.4V687.7c2.8-8.4,19.9-46.2,94.7-46.2h3.2h2
							c77.8,0,141.9-53.4,190.7-158.8l1.6-3.5c1-2.1,2.7-5.2,4.4-8.2c9.7-17.5,25.9-46.7,10.7-74.8c-13.4-24.6-45.5-37.9-101-41.8
							c-108.2-7.6-131.6-26.7-147-39.3c-2.1-1.7-4-3.2-5.8-4.7c-2.3-2-4.5-4.1-6.6-6.4c-21.8-22.3-58.2-59.6-188.3-48.6
							c-122.1,10.3-136.4,38.9-167.1,136.6C273.5,415.2,265.3,441.2,253.7,472.7z"/>
					</g>
				</g>
				<g id="_Clip_Group_">
					<g>
						<defs>
							<path id="SVGID_1_" d="M1007.4,520.9c0,273.4-222.4,495.8-495.8,495.8S15.9,794.2,15.9,520.9S238.3,25.1,511.6,25.1
								S1007.4,247.5,1007.4,520.9z"/>
						</defs>
						<clipPath id="SVGID_2_">
							<use xlink:href="#SVGID_1_"  style="overflow:visible;"/>
						</clipPath>
						<g class="st4">
							<polygon id="_Path_4" class="st5" points="1392.6,-323.3 -128,-323.3 -128,1197.2 							"/>
						</g>
					</g>
				</g>
			</g>
		</g>
	</g>
</g>
</svg>
